<svg id="icon" xmlns="http://www.w3.org/2000/svg" width="26.478" height="24.011" viewBox="0 0 26.478 24.011">
  <path id="Tracé_218" data-name="Tracé 218" d="M1038.161,239.323h-11.223a2.419,2.419,0,0,1-2.407-2.2l-3.4-11.38h-2.785a1.235,1.235,0,1,1,0-2.47h3.7a1.234,1.234,0,0,1,1.183.882l3.7,12.4a1.235,1.235,0,0,1,.052.353l11.169-.054c0-.114-.038-.173-.007-.283l2.024-7.127H1030.7a1.235,1.235,0,0,1,0-2.47h11.115a1.236,1.236,0,0,1,1.188,1.573l-2.432,8.562A2.418,2.418,0,0,1,1038.161,239.323Z" transform="translate(-1016.84 -222.996)"/>
  <path id="Tracé_218_-_Contour" data-name="Tracé 218 - Contour" d="M1038.182,239.616h-11.223a2.7,2.7,0,0,1-2.675-2.424l-3.333-11.161h-2.582a1.507,1.507,0,1,1,0-3.013h3.7a1.514,1.514,0,0,1,1.443,1.076l3.7,12.4a1.475,1.475,0,0,1,.038.158l10.636-.052a.581.581,0,0,1,.018-.086l1.926-6.782h-9.121a1.507,1.507,0,1,1,0-3.013h11.115a1.508,1.508,0,0,1,1.449,1.919l-2.425,8.537A2.7,2.7,0,0,1,1038.182,239.616Zm-19.814-16.055a.963.963,0,0,0,0,1.927h2.987l3.465,11.6,0,.028a2.157,2.157,0,0,0,2.137,1.956h11.223a2.155,2.155,0,0,0,2.137-1.965l0-.026.007-.025,2.432-8.562a.964.964,0,0,0-.927-1.228h-11.115a.963.963,0,0,0,0,1.927h9.84l-2.123,7.473c0,.009,0,.011,0,.056a.927.927,0,0,1,.014.153v.27l-11.712.057v-.273a.958.958,0,0,0-.041-.275l-3.705-12.4a.968.968,0,0,0-.923-.688Z" transform="translate(-1016.862 -223.018)"/>
  <ellipse id="Ellipse_48" data-name="Ellipse 48" cx="2.403" cy="2.403" rx="2.403" ry="2.403" transform="translate(7.055 18.934)"/>
  <path id="Ellipse_48_-_Contour" data-name="Ellipse 48 - Contour" d="M2.424-.25A2.674,2.674,0,1,1-.25,2.424,2.677,2.677,0,0,1,2.424-.25Zm0,4.806A2.131,2.131,0,1,0,.293,2.424,2.134,2.134,0,0,0,2.424,4.556Z" transform="translate(7.034 18.912)"/>
  <ellipse id="Ellipse_49" data-name="Ellipse 49" cx="2.403" cy="2.403" rx="2.403" ry="2.403" transform="translate(19.87 18.934)"/>
  <path id="Ellipse_49_-_Contour" data-name="Ellipse 49 - Contour" d="M2.424-.25A2.674,2.674,0,1,1-.25,2.424,2.677,2.677,0,0,1,2.424-.25Zm0,4.806A2.131,2.131,0,1,0,.293,2.424,2.134,2.134,0,0,0,2.424,4.556Z" transform="translate(19.849 18.912)"/>
</svg>
