<svg id="icon" xmlns="http://www.w3.org/2000/svg" width="28.281" height="26.264" viewBox="0 0 28.281 26.264">
  <path id="Tracé_218" data-name="Tracé 218" d="M1040.065,240.775h-12.239a2.638,2.638,0,0,1-2.625-2.4l-3.706-12.41h-3.037a1.347,1.347,0,1,1,0-2.693h4.04a1.345,1.345,0,0,1,1.29.962l4.04,13.526a1.34,1.34,0,0,1,.057.385l12.179-.059c0-.124-.042-.189-.008-.308l2.207-7.772h-10.338a1.347,1.347,0,0,1,0-2.693h12.12a1.348,1.348,0,0,1,1.3,1.716l-2.652,9.337A2.636,2.636,0,0,1,1040.065,240.775Z" transform="translate(-1017.112 -223.268)" fill="#fff"/>
  <ellipse id="Ellipse_48" data-name="Ellipse 48" cx="2.5" cy="3" rx="2.5" ry="3" transform="translate(7.281 20.264)" fill="#fff"/>
  <circle id="Ellipse_49" data-name="Ellipse 49" cx="3" cy="3" r="3" transform="translate(21.281 20.264)" fill="#fff"/>
</svg>
