<svg xmlns="http://www.w3.org/2000/svg" width="24.146" height="27.085" viewBox="0 0 24.146 27.085">
  <g id="search" transform="translate(-2.996 9.726)">
    <path id="Union_27" data-name="Union 27" d="M15.551,16.9,10.684,12.03a6.674,6.674,0,1,1,1.351-1.351L16.9,15.546A.955.955,0,0,1,15.551,16.9ZM1.913,6.68A4.77,4.77,0,1,0,6.684,1.91,4.771,4.771,0,0,0,1.913,6.68Z" transform="translate(2.996 0.183)" fill="#fff"/>
    <g id="ai" transform="translate(15.834 -9.726)">
      <path id="Tracé_488" data-name="Tracé 488" d="M16.12,6.24a.707.707,0,0,0,.707-.707V4.827h.707a.707.707,0,1,0,0-1.413h-.707V2.707a.707.707,0,1,0-1.413,0v.707h-.707a.707.707,0,0,0,0,1.413h.707v.707A.707.707,0,0,0,16.12,6.24Z" transform="translate(-6.933 -2)" fill="#fff"/>
      <path id="Tracé_489" data-name="Tracé 489" d="M18.24,18.12a.707.707,0,0,0-.707-.707h-.707v-.707a.707.707,0,0,0-1.413,0v.707h-.707a.707.707,0,0,0,0,1.413h.707v.707a.707.707,0,0,0,1.413,0v-.707h.707A.707.707,0,0,0,18.24,18.12Z" transform="translate(-6.933 -6.106)" fill="#fff"/>
      <path id="Tracé_490" data-name="Tracé 490" d="M7.246,6.846a1.006,1.006,0,0,1,1.988,0,2.891,2.891,0,0,0,2.4,2.4,1.006,1.006,0,0,1,0,1.988,2.89,2.89,0,0,0-2.4,2.4,1.006,1.006,0,0,1-1.988,0,2.89,2.89,0,0,0-2.4-2.4,1.006,1.006,0,0,1,0-1.988A2.891,2.891,0,0,0,7.246,6.846ZM8.24,8.319a4.31,4.31,0,0,1-1.92,1.921A4.31,4.31,0,0,1,8.24,12.16a4.309,4.309,0,0,1,1.92-1.921A4.31,4.31,0,0,1,8.24,8.319Z" transform="translate(-4 -3.173)" fill="#fff" fill-rule="evenodd"/>
    </g>
  </g>
</svg>
