<svg xmlns="http://www.w3.org/2000/svg" width="21" height="19" viewBox="0 0 21 19">
  <g id="Style_Line" data-name="Style=Line" transform="translate(-2 -4)">
    <path id="Tracé_497" data-name="Tracé 497" d="M18,18a1,1,0,0,1,2,0v1H18Zm4,1a1,1,0,0,1,1,1v2a1,1,0,0,1-1,1H16a1,1,0,0,1-1-1V20a1,1,0,0,1,1-1V18a3,3,0,0,1,6,0Z" fill="#fff" fill-rule="evenodd"/>
    <path id="Tracé_498" data-name="Tracé 498" d="M10.224,6.055A5.733,5.733,0,0,0,9.012,6H7.8c-.857,0-1.439,0-1.889.038a2.158,2.158,0,0,0-.819.18,2,2,0,0,0-.874.874,2.158,2.158,0,0,0-.18.819C4,8.361,4,8.943,4,9.8v4.4c0,.856,0,1.439.038,1.889a2.158,2.158,0,0,0,.18.819,2,2,0,0,0,.874.874,2.158,2.158,0,0,0,.819.18C6.361,18,6.943,18,7.8,18H12a1,1,0,0,1,0,2H7.759c-.8,0-1.469,0-2.011-.044a4.091,4.091,0,0,1-1.564-.392,4,4,0,0,1-1.748-1.748,4.09,4.09,0,0,1-.392-1.564C2,15.711,2,15.046,2,14.241V9.759c0-.8,0-1.469.044-2.011a4.09,4.09,0,0,1,.392-1.564A4,4,0,0,1,4.184,4.436a4.09,4.09,0,0,1,1.564-.392C6.289,4,6.954,4,7.759,4H9.114a6.751,6.751,0,0,1,1.577.111,4,4,0,0,1,1.156.479,6.752,6.752,0,0,1,1.194,1.037l.072.072.3.3h2.827c.805,0,1.469,0,2.01.044a4.09,4.09,0,0,1,1.564.392,4,4,0,0,1,1.748,1.748,4.089,4.089,0,0,1,.392,1.564c.044.541.044,1.206.044,2.01V12a1,1,0,1,1-2,0v-.2c0-.857,0-1.439-.038-1.889a2.158,2.158,0,0,0-.18-.819,2,2,0,0,0-.874-.874,2.158,2.158,0,0,0-.819-.18C17.639,8,17.057,8,16.2,8H13a1,1,0,0,1-.707-.293L11.7,7.113a5.734,5.734,0,0,0-.9-.818A2,2,0,0,0,10.224,6.055Z" fill="#fff" fill-rule="evenodd"/>
  </g>
</svg>
