<svg xmlns="http://www.w3.org/2000/svg" width="21.737" height="19.754" viewBox="0 0 21.737 19.754">
  <path id="Path_-_Contour" data-name="Path - Contour" d="M5.252-1.5h.059A6.594,6.594,0,0,1,9.367.017,6.6,6.6,0,0,1,13.428-1.5h.058l.058,0a7.078,7.078,0,0,1,6.688,7.151v.04a3.133,3.133,0,0,1,0,.346c-.129,3.562-1.988,6.785-5.379,9.322a20.128,20.128,0,0,1-5,2.725l-.486.166-.486-.166a20.132,20.132,0,0,1-5-2.725C.5,12.829-1.362,9.609-1.493,6.051a2.8,2.8,0,0,1,0-.366v-.03A7.077,7.077,0,0,1,5.193-1.5ZM9.365,4.87l-1.236-1.8A3.606,3.606,0,0,0,5.3,1.5,4.077,4.077,0,0,0,1.5,5.625V5.8l0,.048,0,.063c.089,2.646,1.473,5,4.115,7a17.8,17.8,0,0,0,3.75,2.145,17.8,17.8,0,0,0,3.749-2.144c2.641-2,4.026-4.352,4.116-7l0-.054a.122.122,0,0,0,0-.017l0-.053V5.625A4.078,4.078,0,0,0,13.439,1.5,3.609,3.609,0,0,0,10.6,3.067Z" transform="translate(1.5 1.501)" stroke="#fff"/>
</svg>
