<svg xmlns="http://www.w3.org/2000/svg" width="21.541" height="18.772" viewBox="0 0 21.541 18.772">
  <path id="Tracé_218" data-name="Tracé 218" d="M925.885,243.074a1.349,1.349,0,0,1-.808-.269c-.233-.175-5.741-4.319-7.828-7.022a8.645,8.645,0,0,1-1.969-7.062,5.583,5.583,0,0,1,3.235-3.794,23.926,23.926,0,0,0,14.741,0,5.583,5.583,0,0,1,3.235,3.794,8.653,8.653,0,0,1-1.968,7.063c-2.089,2.7-7.6,6.845-7.83,7.02A1.346,1.346,0,0,1,925.885,243.074Zm-4.56-16.085a3.923,3.923,0,0,0-1.671.38,2.942,2.942,0,0,0-1.756,1.988,6.08,6.08,0,0,0,1.481,4.779,45.881,45.881,0,0,0,6.506,5.893,46.121,46.121,0,0,0,6.507-5.892,6.089,6.089,0,0,0,1.481-4.781,2.949,2.949,0,0,0-1.756-1.988h0a4.006,4.006,0,0,0-5.088,1.533,1.4,1.4,0,0,1-2.289,0A4.1,4.1,0,0,0,921.325,226.989Z" transform="translate(-915.114 -224.302)" fill="#fff"/>
</svg>
