<svg xmlns="http://www.w3.org/2000/svg" width="26.934" height="22.231" viewBox="0 0 26.934 22.231">
  <g id="icon" transform="translate(0 0)">
    <path id="Tracé_221" data-name="Tracé 221" d="M948.46,240.536a1.347,1.347,0,0,1-.719-2.486l5.773-3.637a3.847,3.847,0,0,1,3.912-.23,9.976,9.976,0,0,0,6.566-.042,3.766,3.766,0,0,1,3.788.148l5.665,3.78a1.347,1.347,0,0,1-1.495,2.241l-5.647-3.768a1.051,1.051,0,0,0-1.06-.018,12.442,12.442,0,0,1-8.987.085,1.223,1.223,0,0,0-1.25.042l-5.832,3.678A1.343,1.343,0,0,1,948.46,240.536Z" transform="translate(-947.112 -218.305)" fill="#fff"/>
    <path id="Tracé_222" data-name="Tracé 222" d="M958.794,235.735A6.733,6.733,0,1,1,965.528,229,6.741,6.741,0,0,1,958.794,235.735Zm0-10.774a4.04,4.04,0,1,0,4.04,4.04A4.045,4.045,0,0,0,958.794,224.961Z" transform="translate(-945.396 -222.268)" fill="#fff"/>
  </g>
</svg>
