<svg xmlns="http://www.w3.org/2000/svg" width="285.852" height="59.262" viewBox="0 0 285.852 59.262">
  <path id="Tracé_429" data-name="Tracé 429" d="M-128.691-35.275V-49.136h12.2a19,19,0,0,1,3.361.291,8.4,8.4,0,0,1,2.864,1.038,5.526,5.526,0,0,1,1.992,2.075,6.888,6.888,0,0,1,.747,3.4q0,3.735-2.241,5.4a9.369,9.369,0,0,1-5.727,1.66Zm-13.031-23.987V0H-113a30.3,30.3,0,0,0,7.76-1,20.752,20.752,0,0,0,6.723-3.071,15.124,15.124,0,0,0,4.69-5.353,16.31,16.31,0,0,0,1.743-7.76,16.421,16.421,0,0,0-2.7-9.5,14.243,14.243,0,0,0-8.175-5.52,14.771,14.771,0,0,0,6.017-4.9,12.98,12.98,0,0,0,2.034-7.47,15.9,15.9,0,0,0-1.369-6.972,11.388,11.388,0,0,0-3.86-4.523,16.667,16.667,0,0,0-5.976-2.449,36.908,36.908,0,0,0-7.719-.747Zm13.031,49.136V-26.394H-114.5a10.981,10.981,0,0,1,6.806,1.951q2.573,1.95,2.573,6.515a8.146,8.146,0,0,1-.788,3.818,6.266,6.266,0,0,1-2.117,2.366A8.962,8.962,0,0,1-111.1-10.5a17.39,17.39,0,0,1-3.652.373Zm57.6-22.327V-49.136h14.276q4.482,0,6.723,1.951t2.241,6.266q0,4.482-2.241,6.474t-6.723,1.992ZM-84.12-59.262V0h13.031V-23.157h13.031q4.9,0,7.055,2.158t2.822,6.806q.5,3.569.747,7.47A22.976,22.976,0,0,0-46.106,0h13.031a8.722,8.722,0,0,1-1.37-3.03,26.169,26.169,0,0,1-.664-3.777q-.207-1.992-.29-3.9t-.166-3.32a35.616,35.616,0,0,0-.622-4.482,15.07,15.07,0,0,0-1.452-4.108,11.275,11.275,0,0,0-2.573-3.237A10.051,10.051,0,0,0-44.2-27.888v-.166a13.818,13.818,0,0,0,7.179-5.81,17.817,17.817,0,0,0,2.2-9.047,16.629,16.629,0,0,0-1.2-6.349,15.312,15.312,0,0,0-3.486-5.187,16.524,16.524,0,0,0-5.478-3.527,19.076,19.076,0,0,0-7.18-1.286Zm74.036,36.354,7.719-21.746H-2.2l7.47,21.746Zm1.245-36.354L-31.249,0h13.114l4.648-13.2H8.674L13.156,0H26.685L4.524-59.262Zm39.84,0V0H43.2V-39.674h.166L68.019,0H81.05V-59.262h-12.2V-19.5h-.166L43.949-59.262Zm73.7,48.306v-37.35H114a21.041,21.041,0,0,1,8.092,1.369,12.7,12.7,0,0,1,5.271,3.943,16.145,16.145,0,0,1,2.864,6.183,34.553,34.553,0,0,1,.872,8.093,24.282,24.282,0,0,1-1.245,8.3,15.225,15.225,0,0,1-3.32,5.52,12.057,12.057,0,0,1-4.731,3.029,16.736,16.736,0,0,1-5.478.913ZM91.674-59.262V0h25.564a28.368,28.368,0,0,0,11.827-2.283,23.53,23.53,0,0,0,8.383-6.266,26.3,26.3,0,0,0,5.021-9.462,41.055,41.055,0,0,0,1.66-11.952A36.93,36.93,0,0,0,142.1-42.828a25.289,25.289,0,0,0-5.644-9.13,23.151,23.151,0,0,0-8.549-5.478,30.516,30.516,0,0,0-10.665-1.826Z" transform="translate(141.722 59.262)" fill="#fff"/>
</svg>
