<svg xmlns="http://www.w3.org/2000/svg" width="234.958" height="45.19" viewBox="0 0 234.958 45.19">
  <g id="Groupe_1306" data-name="Groupe 1306" transform="translate(-639.402 -12126.218)">
    <path id="Tracé_426" data-name="Tracé 426" d="M-89.8-35.154a.5.5,0,0,1,.054-.648.871.871,0,0,1,.7-.324,5.908,5.908,0,0,1,1.3.216,77.87,77.87,0,0,0,8.262,1.08q2.916.27,12.1.27,9.126,0,9.4.324a.631.631,0,0,1-.216.972q-.216.216-8.262.216H-74.52l.378.54a3.985,3.985,0,0,1,.324,1.836,51.71,51.71,0,0,1-.648,5.616q-.648,4.374-1.35,7.56Q-77.868-7.506-78.3-4.32q-.162,1.08-.756,1.08a.752.752,0,0,1-.324-.054q-.27-.162-.27-.864,0-1.35,1.944-11.286.756-3.672,2.322-13.068a13.3,13.3,0,0,0,.27-2,2.113,2.113,0,0,0-.7-1.62q-.54-.54-.54-.81,0-.216-2.646-.432-4-.27-7.263-.81T-89.8-35.154Zm47.79.864a9.3,9.3,0,0,1-.945-.081q-.675-.081-.837-.081a14.343,14.343,0,0,0-5.886,1.458,1.827,1.827,0,0,0-.621.4,1.88,1.88,0,0,0-.081.729,22.817,22.817,0,0,0,.432,3.51q1.026,6.21,1.458,11.88a7.018,7.018,0,0,0,.108.918,1.217,1.217,0,0,0,.216.432.632.632,0,0,0,.54.216,22.456,22.456,0,0,0,3.834-1.026,26.032,26.032,0,0,0,6.237-2.916,9.378,9.378,0,0,0,3.483-3.564,6.341,6.341,0,0,0,.594-2.862A8.5,8.5,0,0,0-36.288-31.7,9.393,9.393,0,0,0-42.012-34.29Zm-4.374-1.3a14.412,14.412,0,0,1,2.97-.216,12.18,12.18,0,0,1,2.7.216,11.3,11.3,0,0,1,5.967,3.456,9.834,9.834,0,0,1,2.727,6.264v.7a8.107,8.107,0,0,1-.864,3.564q-2.538,4.914-12.852,7.83l-.972.27,2.43,2.538A57.424,57.424,0,0,0-34.668-2.43q1.35.864,1.35,1.242a.6.6,0,0,1-.054.27.523.523,0,0,1-.486.378q-.7,0-3.618-2.16a62.266,62.266,0,0,1-8.154-7.56l-2.538-2.754L-48.276-8.1q-.162,10.044-.864,10.8-.54.54-.972.054a1.125,1.125,0,0,1-.108-.648A15.7,15.7,0,0,1-50.112.27q.432-4.536.432-9.5a16.942,16.942,0,0,0-.27-4.158.8.8,0,0,1,0-.81,3.079,3.079,0,0,0,.054-.81,85.607,85.607,0,0,0-1.35-12.528q-.432-2.862-.594-3.888-.108-.7-.27-.81-.162-.054-.162-.378a1.592,1.592,0,0,1,.351-.918q.351-.486.675-.486a2.373,2.373,0,0,0,1.134-.324A15.091,15.091,0,0,1-46.386-35.586ZM-12.8-26.028q-.27-1.35-.648-4a6.252,6.252,0,0,0-.324-1.836l-.108.108q-.7,1.674-3.672,11.556a33.517,33.517,0,0,0-1.08,3.888.87.87,0,0,0,.108.378,2.631,2.631,0,0,0,1.782,1.08,25.322,25.322,0,0,0,4.482.432q.756.054,1.62.054.81,0,.81-.162a22.568,22.568,0,0,0-.675-2.916q-.675-2.538-1.431-5.319T-12.8-26.028Zm-.918-10.854a.87.87,0,0,1,.567-.324.622.622,0,0,1,.567.162,9.8,9.8,0,0,1,.162,2.7q0,2,.108,3.024a20.665,20.665,0,0,0,.432,2.43q.324,1.4.486,2.322.378,2.214,1.458,6.048.324,1.08,1.026,3.915t1.026,3.915a100.74,100.74,0,0,0,4.806,14.8,8.4,8.4,0,0,1,.7,2.214.479.479,0,0,1-.378.459.612.612,0,0,1-.594-.027Q-3.78,4.482-5.67-.432A98.288,98.288,0,0,1-8.964-11.07L-9.4-12.8l-2.106-.108q-6.156-.324-7.344-1.35a1.609,1.609,0,0,0-.216-.162q-.054-.108-.108-.108a16.43,16.43,0,0,0-.756,1.944,51.877,51.877,0,0,1-2.862,6.966A28.921,28.921,0,0,0-24.894-.324,4.054,4.054,0,0,1-25.3.864a.594.594,0,0,1-.513.27q-.7,0-.7-.81,0-1.242,1.944-5.562,1.944-4.212,2.673-6.183t2.889-9.1q.648-2.16,2-6.318L-15.66-31q1.458-4.644,1.512-4.752Q-13.716-36.828-13.716-36.882Zm30.4,4.1a5.336,5.336,0,0,1,.918-.054,9.018,9.018,0,0,1,2.484.324q1.134.324,1.134.81a.884.884,0,0,1-.324.54q-.27.27-1.08.054a6.136,6.136,0,0,0-1.728-.27,11.385,11.385,0,0,0-5.022,1.458,15.69,15.69,0,0,0-6.21,5.346,11.869,11.869,0,0,0-2.214,6.912,9.524,9.524,0,0,0,.972,4.32A7.806,7.806,0,0,0,7.263-11.1,8.169,8.169,0,0,0,9.45-9.45,16.826,16.826,0,0,0,16.794-8.1a17.514,17.514,0,0,0,6.588-1.08,4.71,4.71,0,0,1,1.35-.432.671.671,0,0,1,.486.216q.594.7-.486,1.188a17.355,17.355,0,0,1-7.83,1.62A17.278,17.278,0,0,1,8.8-8.316a10.465,10.465,0,0,1-2.7-2,9.288,9.288,0,0,1-2.808-5.778,11.814,11.814,0,0,1-.108-1.4A14.256,14.256,0,0,1,6.21-26.3a17.36,17.36,0,0,1,4.86-4.293A15.021,15.021,0,0,1,16.686-32.778Zm14.472,1.242a.854.854,0,0,1,.621-.27.441.441,0,0,1,.459.27q.54,1.026,1.188,6.8.324,3.564.378,4.536l.054,2.484.918-.756q2.592-2.268,8.964-5.076,2.916-1.3,3.78-1.728a4.207,4.207,0,0,1,1.512-.54q.7,0,.594.81-.054.486-4.7,2.484A38.145,38.145,0,0,0,35.856-17.5q-.972.756-.756.972.432.378,6.777,3.861T51.3-7.668q1.026.486,1.026.918a.947.947,0,0,1-.108.27.6.6,0,0,1-.594.324,5.845,5.845,0,0,1-2.16-.756q-4-2-11.232-6.1a45.018,45.018,0,0,0-4.266-2.322l-.162,1.4q-.108,1.4-.324,3.4t-.459,4.023q-.243,2.025-.54,3.51T31.914-1.4a.98.98,0,0,1-.675-.027q-.405-.135-.405-.405A21.732,21.732,0,0,1,31.158-4a68.356,68.356,0,0,0,1.188-13.068,66.008,66.008,0,0,0-1.134-12.69A8.5,8.5,0,0,1,31-31.1.584.584,0,0,1,31.158-31.536ZM58.05-35.154A.5.5,0,0,1,58.1-35.8a.871.871,0,0,1,.7-.324,5.908,5.908,0,0,1,1.3.216,77.87,77.87,0,0,0,8.262,1.08q2.916.27,12.1.27,9.126,0,9.4.324a.631.631,0,0,1-.216.972q-.216.216-8.262.216H73.332l.378.54a3.985,3.985,0,0,1,.324,1.836,51.71,51.71,0,0,1-.648,5.616q-.648,4.374-1.35,7.56Q69.984-7.506,69.552-4.32,69.39-3.24,68.8-3.24a.752.752,0,0,1-.324-.054q-.27-.162-.27-.864,0-1.35,1.944-11.286.756-3.672,2.322-13.068a13.3,13.3,0,0,0,.27-2,2.113,2.113,0,0,0-.7-1.62q-.54-.54-.54-.81,0-.216-2.646-.432-4-.27-7.263-.81T58.05-35.154Z" transform="matrix(1, 0.017, -0.017, 1, 783.721, 12164.998)" fill="#fff"/>
    <path id="Tracé_427" data-name="Tracé 427" d="M-7.052-12.792a10.992,10.992,0,0,0-2.3-.2,31.584,31.584,0,0,0-3.772.287q-1.845.287-3.526.451l-1.517.123v1.517q-.082,2.05-.164,4.715-.041,1.23-.041,2.911v.369q.082.205,6.232-1.968A27.466,27.466,0,0,0-7.113-6.929,6.916,6.916,0,0,0-4.469-9.348a2.7,2.7,0,0,0,.328-1.189Q-4.141-12.177-7.052-12.792Zm-5.9-13.53a6.621,6.621,0,0,0-2.091-.369,4.569,4.569,0,0,0-3.034,1.066q-.451.328-.451,1.517,0,.738.123,2.214.246,3.731.287,5.289l.082,3.075.943-.082a22.818,22.818,0,0,0,5.043-1.107q5.084-1.64,5.248-4.469v-.287a6.1,6.1,0,0,0-1.8-4A9.712,9.712,0,0,0-12.956-26.322ZM-19.27-15.99q0-1.476-.143-4.182t-.144-4.018a8.469,8.469,0,0,1,.144-2.03.741.741,0,0,1,.635-.512,7.052,7.052,0,0,0,1.189-.472,5.677,5.677,0,0,1,1.271-.472,4.3,4.3,0,0,1,1.025-.082,7.865,7.865,0,0,1,2.624.369,10.922,10.922,0,0,1,3.752,2.173,10.106,10.106,0,0,1,2.644,3.28,5.382,5.382,0,0,1,.615,2.419,4.534,4.534,0,0,1-1.394,3.239,8.876,8.876,0,0,1-2.3,1.64l-.738.41,1.476.082a9.842,9.842,0,0,1,3.67.8,3.323,3.323,0,0,1,1.7,1.989,3.272,3.272,0,0,1,.123.861,4.244,4.244,0,0,1-1.25,2.768A11.589,11.589,0,0,1-7.913-5.166a58.894,58.894,0,0,1-7.421,2.829,27.156,27.156,0,0,1-2.911.861q-.164,0-.246.246a.456.456,0,0,1-.369.308.561.561,0,0,1-.492-.1,3.9,3.9,0,0,1-.123-1.435q0-.984.1-3.977t.1-4.182a5.04,5.04,0,0,0-.164-1.927q-.164-.082-.164-.41a.668.668,0,0,1,.164-.492A8.677,8.677,0,0,0-19.27-15.99Zm33.989-8.979A32.933,32.933,0,0,0,16.687-27.8a8.362,8.362,0,0,1,.9-1.394,5.571,5.571,0,0,1,1.025-1.271.769.769,0,0,1,.451.143.418.418,0,0,1,.2.348,7.263,7.263,0,0,1-.984,1.64q-.246.369-.472.717t-.349.553l-.082.164a17.174,17.174,0,0,1-1.271,1.886q-1.312,1.845-2.706,3.731Q10.25-17.1,7.667-14.022l-.9,1.107v1.886a83.916,83.916,0,0,1-.656,9.471Q6.027-.7,5.966-.266A3.744,3.744,0,0,1,5.8.451.84.84,0,0,1,5.617.8a.408.408,0,0,1-.246.062.566.566,0,0,1-.41-.123A.794.794,0,0,1,4.838.2,13.559,13.559,0,0,1,5-1.6a88.661,88.661,0,0,0,.7-10.537,5.937,5.937,0,0,0-.41-2.3,59.727,59.727,0,0,1-2.173-6.724q-.984-3.526-1.394-4.674a10.735,10.735,0,0,1-.574-1.927q0-.205.287-.287A.6.6,0,0,1,1.927-28q.41.205,1.8,5,2.378,8.487,2.788,8.487.328,0,4.879-5.9Q12.792-22.263,14.719-24.969Z" transform="translate(659 12169.5)" fill="#fff"/>
  </g>
</svg>
