<svg xmlns="http://www.w3.org/2000/svg" width="63.744" height="62.001" viewBox="0 0 63.744 62.001">
  <path id="Tracé_430" data-name="Tracé 430" d="M16.268-24.485H9.545a6.958,6.958,0,0,1-2.656,4.731,9.053,9.053,0,0,1-5.727,1.743,8.645,8.645,0,0,1-4.067-.955,9.638,9.638,0,0,1-3.113-2.573A11.918,11.918,0,0,1-8.01-25.357a14.989,14.989,0,0,1-.706-4.606,13.686,13.686,0,0,1,2.49-8.508A8.515,8.515,0,0,1,1-41.749a9.315,9.315,0,0,1,5.561,1.66,7.445,7.445,0,0,1,2.988,4.565h6.474a15.629,15.629,0,0,0-1.743-5.561,13.549,13.549,0,0,0-3.32-4.026,14.039,14.039,0,0,0-4.524-2.449A17.347,17.347,0,0,0,1-48.389a18.623,18.623,0,0,0-7.428,1.411,16.032,16.032,0,0,0-5.561,3.9,16.99,16.99,0,0,0-3.486,5.893,22.006,22.006,0,0,0-1.2,7.387A20.148,20.148,0,0,0-15.4-22.535a17.8,17.8,0,0,0,3.611,5.851,16.462,16.462,0,0,0,5.6,3.9,18.4,18.4,0,0,0,7.345,1.411,16.078,16.078,0,0,0,5.271-.872A14.311,14.311,0,0,0,11-14.815a14.71,14.71,0,0,0,3.4-4.15A16.678,16.678,0,0,0,16.268-24.485Zm-39.674-5.146a25.716,25.716,0,0,1,1.826-9.794,23.776,23.776,0,0,1,4.98-7.719,22.71,22.71,0,0,1,7.428-5.063A23.1,23.1,0,0,1,0-54.033a22.892,22.892,0,0,1,9.089,1.826,22.71,22.71,0,0,1,7.428,5.063,24.339,24.339,0,0,1,5.021,7.719,25.214,25.214,0,0,1,1.868,9.794,25.214,25.214,0,0,1-1.868,9.794,24.339,24.339,0,0,1-5.021,7.719A22.71,22.71,0,0,1,9.089-7.055,22.892,22.892,0,0,1,0-5.229,23.1,23.1,0,0,1-9.172-7.055,22.71,22.71,0,0,1-16.6-12.118a23.776,23.776,0,0,1-4.98-7.719A25.716,25.716,0,0,1-23.406-29.631Zm-8.466,0a30.426,30.426,0,0,0,2.615,12.782,30.312,30.312,0,0,0,7.014,9.794A30.619,30.619,0,0,0-12.076-.83,34.184,34.184,0,0,0,0,1.328,34.184,34.184,0,0,0,12.076-.83,30.619,30.619,0,0,0,22.244-7.055a30.312,30.312,0,0,0,7.014-9.794,30.426,30.426,0,0,0,2.614-12.782A30.632,30.632,0,0,0,29.257-42.5a29.843,29.843,0,0,0-7.014-9.752,31.554,31.554,0,0,0-10.168-6.225A33.609,33.609,0,0,0,0-60.673a33.609,33.609,0,0,0-12.076,2.2,31.554,31.554,0,0,0-10.167,6.225A29.843,29.843,0,0,0-29.258-42.5,30.632,30.632,0,0,0-31.872-29.631Z" transform="translate(31.872 60.673)" fill="#fff"/>
</svg>
