<svg xmlns="http://www.w3.org/2000/svg" width="587.391" height="59.262" viewBox="0 0 587.391 59.262">
  <path id="Tracé_428" data-name="Tracé 428" d="M-291.372-59.262V0h13.031V-59.262Zm23.655,0V0h12.2V-39.674h.166L-230.7,0h13.031V-59.262h-12.2V-19.5h-.166l-24.734-39.757Zm73.7,48.306v-37.35h9.3a21.041,21.041,0,0,1,8.092,1.369,12.7,12.7,0,0,1,5.27,3.943,16.145,16.145,0,0,1,2.864,6.183,34.553,34.553,0,0,1,.872,8.093,24.282,24.282,0,0,1-1.245,8.3,15.225,15.225,0,0,1-3.32,5.52,12.057,12.057,0,0,1-4.731,3.029,16.736,16.736,0,0,1-5.478.913Zm-13.031-48.306V0h25.564a28.368,28.368,0,0,0,11.827-2.283,23.53,23.53,0,0,0,8.383-6.266,26.3,26.3,0,0,0,5.021-9.462,41.055,41.055,0,0,0,1.66-11.952,36.93,36.93,0,0,0-2.033-12.865,25.289,25.289,0,0,0-5.644-9.13,23.151,23.151,0,0,0-8.549-5.478,30.516,30.516,0,0,0-10.665-1.826Zm60.673,0V0h44.986V-10.956H-133.34V-25.481h28.718V-35.607H-133.34v-12.7h31.291V-59.262Zm65.985,27.888V-49.136H-70.26a27.291,27.291,0,0,1,4.316.332,10.043,10.043,0,0,1,3.652,1.287,7.009,7.009,0,0,1,2.531,2.7,9.481,9.481,0,0,1,.955,4.565,9.481,9.481,0,0,1-.955,4.565,7.009,7.009,0,0,1-2.531,2.7,10.043,10.043,0,0,1-3.652,1.287,27.291,27.291,0,0,1-4.316.332ZM-93.417-59.262V0h13.031V-21.248h13.7a24.683,24.683,0,0,0,9.462-1.618,17.7,17.7,0,0,0,6.349-4.274,16.365,16.365,0,0,0,3.569-6.1,22.538,22.538,0,0,0,1.121-7.014A22.412,22.412,0,0,0-47.31-47.31a16.42,16.42,0,0,0-3.569-6.059,17.7,17.7,0,0,0-6.349-4.275,24.683,24.683,0,0,0-9.462-1.618Zm54.531,0V0H6.1V-10.956H-25.855V-25.481H2.863V-35.607H-25.855v-12.7H5.436V-59.262Zm52.954,0V0h12.2V-39.674h.166L51.086,0H64.117V-59.262h-12.2V-19.5H51.75L27.016-59.262Zm73.7,48.306v-37.35h9.3a21.041,21.041,0,0,1,8.092,1.369,12.7,12.7,0,0,1,5.271,3.943,16.145,16.145,0,0,1,2.864,6.183,34.554,34.554,0,0,1,.872,8.093,24.282,24.282,0,0,1-1.245,8.3,15.224,15.224,0,0,1-3.32,5.52,12.057,12.057,0,0,1-4.731,3.029,16.736,16.736,0,0,1-5.478.913ZM74.741-59.262V0h25.564a28.368,28.368,0,0,0,11.827-2.283,23.53,23.53,0,0,0,8.383-6.266,26.3,26.3,0,0,0,5.021-9.462,41.055,41.055,0,0,0,1.66-11.952,36.931,36.931,0,0,0-2.033-12.865,25.289,25.289,0,0,0-5.644-9.13,23.151,23.151,0,0,0-8.549-5.478,30.516,30.516,0,0,0-10.665-1.826Zm75.613,36.354,7.719-21.746h.166l7.47,21.746ZM151.6-59.262,129.189,0H142.3l4.648-13.2h22.161L173.594,0h13.529L164.962-59.262Zm39.84,0V0h12.2V-39.674h.166L228.457,0h13.031V-59.262h-12.2V-19.5h-.166L204.387-59.262Zm73.787,10.956V0h13.031V-48.306H296.02V-59.262H247.464v10.956Z" transform="translate(291.372 59.262)" fill="#fff"/>
</svg>
